<svg width="32" height="32" viewBox="0 0 32 32" fill="none" xmlns="http://www.w3.org/2000/svg">
<path d="M9.25 15.25H24.25C24.4489 15.25 24.6397 15.329 24.7803 15.4697C24.921 15.6103 25 15.8011 25 16C25 16.1989 24.921 16.3897 24.7803 16.5303C24.6397 16.671 24.4489 16.75 24.25 16.75H9.25C9.05109 16.75 8.86032 16.671 8.71967 16.5303C8.57902 16.3897 8.5 16.1989 8.5 16C8.5 15.8011 8.57902 15.6103 8.71967 15.4697C8.86032 15.329 9.05109 15.25 9.25 15.25Z" fill="black"/>
<path d="M9.56062 16L15.7811 22.219C15.9219 22.3598 16.0011 22.5508 16.0011 22.75C16.0011 22.9492 15.9219 23.1402 15.7811 23.281C15.6403 23.4218 15.4493 23.5009 15.2501 23.5009C15.051 23.5009 14.8599 23.4218 14.7191 23.281L7.96912 16.531C7.89928 16.4613 7.84386 16.3786 7.80605 16.2875C7.76824 16.1963 7.74878 16.0987 7.74878 16C7.74878 15.9014 7.76824 15.8037 7.80605 15.7126C7.84386 15.6214 7.89928 15.5387 7.96912 15.469L14.7191 8.719C14.8599 8.57817 15.051 8.49905 15.2501 8.49905C15.4493 8.49905 15.6403 8.57817 15.7811 8.719C15.9219 8.85983 16.0011 9.05084 16.0011 9.25C16.0011 9.44916 15.9219 9.64017 15.7811 9.781L9.56062 16Z" fill="black"/>
<rect x="0.5" y="0.5" width="31" height="31" rx="15.5" stroke="black"/>
</svg>
