<svg width="32" height="33" viewBox="0 0 32 33" fill="none" xmlns="http://www.w3.org/2000/svg">
<path fill-rule="evenodd" clip-rule="evenodd" d="M25.546 10.111C25.8272 10.3923 25.9852 10.7738 25.9852 11.1715C25.9852 11.5693 25.8272 11.9507 25.546 12.232L14.303 23.475C14.1544 23.6236 13.978 23.7415 13.7839 23.8219C13.5898 23.9024 13.3817 23.9438 13.1715 23.9438C12.9614 23.9438 12.7533 23.9024 12.5591 23.8219C12.365 23.7415 12.1886 23.6236 12.04 23.475L6.45403 17.89C6.31076 17.7516 6.19649 17.5861 6.11787 17.4031C6.03926 17.2201 5.99788 17.0233 5.99615 16.8241C5.99442 16.6249 6.03237 16.4274 6.10779 16.2431C6.18322 16.0587 6.29459 15.8913 6.43543 15.7504C6.57627 15.6096 6.74375 15.4982 6.92809 15.4228C7.11244 15.3474 7.30996 15.3094 7.50913 15.3111C7.7083 15.3129 7.90513 15.3542 8.08813 15.4329C8.27114 15.5115 8.43666 15.6257 8.57503 15.769L13.171 20.365L23.424 10.111C23.5633 9.97162 23.7287 9.86104 23.9108 9.7856C24.0928 9.71016 24.288 9.67133 24.485 9.67133C24.6821 9.67133 24.8772 9.71016 25.0593 9.7856C25.2413 9.86104 25.4067 9.97162 25.546 10.111Z" fill="black"/>
<rect x="0.5" y="1" width="31" height="31" rx="15.5" stroke="black"/>
</svg>
