<svg width="32" height="33" viewBox="0 0 32 33" fill="none" xmlns="http://www.w3.org/2000/svg">
<path d="M22.75 17.25L7.75 17.25C7.55109 17.25 7.36032 17.171 7.21967 17.0303C7.07902 16.8897 7 16.6989 7 16.5C7 16.3011 7.07902 16.1103 7.21967 15.9697C7.36032 15.829 7.55109 15.75 7.75 15.75L22.75 15.75C22.9489 15.75 23.1397 15.829 23.2803 15.9697C23.421 16.1103 23.5 16.3011 23.5 16.5C23.5 16.6989 23.421 16.8897 23.2803 17.0303C23.1397 17.171 22.9489 17.25 22.75 17.25Z" fill="white"/>
<path d="M22.4396 16.5L16.2191 10.281C16.0783 10.1402 15.9992 9.94916 15.9992 9.75C15.9992 9.55084 16.0783 9.35983 16.2191 9.219C16.36 9.07817 16.551 8.99905 16.7501 8.99905C16.9493 8.99905 17.1403 9.07817 17.2811 9.219L24.0311 15.969C24.101 16.0387 24.1564 16.1214 24.1942 16.2125C24.232 16.3037 24.2515 16.4013 24.2515 16.5C24.2515 16.5986 24.232 16.6963 24.1942 16.7874C24.1564 16.8786 24.101 16.9613 24.0311 17.031L17.2811 23.781C17.1403 23.9218 16.9493 24.0009 16.7501 24.0009C16.551 24.0009 16.36 23.9218 16.2191 23.781C16.0783 23.6402 15.9992 23.4492 15.9992 23.25C15.9992 23.0508 16.0783 22.8598 16.2191 22.719L22.4396 16.5Z" fill="white"/>
<rect x="31.5" y="32" width="31" height="31" rx="15.5" transform="rotate(180 31.5 32)" stroke="white"/>
</svg>
