<svg width="32" height="32" viewBox="0 0 32 32" fill="none" xmlns="http://www.w3.org/2000/svg">
<path d="M16 21C16.5304 21 17.0391 21.2107 17.4142 21.5858C17.7893 21.9609 18 22.4696 18 23C18 23.5304 17.7893 24.0391 17.4142 24.4142C17.0391 24.7893 16.5304 25 16 25C15.4696 25 14.9609 24.7893 14.5858 24.4142C14.2107 24.0391 14 23.5304 14 23C14 22.4696 14.2107 21.9609 14.5858 21.5858C14.9609 21.2107 15.4696 21 16 21ZM16 14C16.5304 14 17.0391 14.2107 17.4142 14.5858C17.7893 14.9609 18 15.4696 18 16C18 16.5304 17.7893 17.0391 17.4142 17.4142C17.0391 17.7893 16.5304 18 16 18C15.4696 18 14.9609 17.7893 14.5858 17.4142C14.2107 17.0391 14 16.5304 14 16C14 15.4696 14.2107 14.9609 14.5858 14.5858C14.9609 14.2107 15.4696 14 16 14ZM16 7C16.5304 7 17.0391 7.21071 17.4142 7.58579C17.7893 7.96086 18 8.46957 18 9C18 9.53043 17.7893 10.0391 17.4142 10.4142C17.0391 10.7893 16.5304 11 16 11C15.4696 11 14.9609 10.7893 14.5858 10.4142C14.2107 10.0391 14 9.53043 14 9C14 8.46957 14.2107 7.96086 14.5858 7.58579C14.9609 7.21071 15.4696 7 16 7Z" fill="black"/>
<rect x="0.5" y="0.5" width="31" height="31" rx="15.5" stroke="black"/>
</svg>
